<svg width="56" height="49" viewBox="0 0 56 49" fill="none" xmlns="http://www.w3.org/2000/svg">
<path fill-rule="evenodd" clip-rule="evenodd" d="M48.9981 3.90148C45.6094 1.00497 42.2035 0.165599 42.0602 0.131468L41.5116 0L0.597656 19.065V29.7948H2.21572C4.38663 29.7948 6.15302 31.5607 6.15302 33.732C6.15302 35.903 4.38663 37.6693 2.21572 37.6693H0.597656V48.3507H36.5685V46.7057C36.5811 44.4859 38.3909 42.6832 40.6136 42.6832C42.8351 42.6832 44.644 44.4833 44.6588 46.7014V48.3507H55.8277V20.1213C55.8277 11.5409 52.1137 6.56497 48.9981 3.90148ZM41.8069 3.43249C42.7563 3.75442 44.8981 4.62202 47.0025 6.45373C50.3557 9.37341 52.2144 13.4131 52.5393 18.4784H9.51893L41.8069 3.43249ZM22.5781 21.7145C22.2035 23.4042 20.6941 24.6726 18.8928 24.6726C17.0918 24.6726 15.582 23.4042 15.2074 21.7145H22.5781ZM47.7146 45.1146C46.9784 41.8738 44.0739 39.4471 40.6136 39.4471C37.1533 39.4471 34.2488 41.8738 33.5127 45.1146H3.83379V40.7213C7.01262 39.9856 9.38915 37.1313 9.38915 33.732C9.38915 30.3328 7.01262 27.4781 3.83379 26.7423V21.7145H11.9304C12.3366 25.1967 15.3031 27.9087 18.8928 27.9087C22.4824 27.9087 25.4489 25.1967 25.8555 21.7145H52.5915V45.1146H47.7146ZM43.5368 23.9356C40.3942 23.9356 37.8374 26.4925 37.8374 29.635C37.8374 32.7781 40.3942 35.3349 43.5368 35.3349C46.6798 35.3349 49.2367 32.7781 49.2367 29.635C49.2367 26.4925 46.6798 23.9356 43.5368 23.9356ZM43.5368 32.0988C42.1783 32.0988 41.0735 30.9935 41.0735 29.635C41.0735 28.277 42.1787 27.1717 43.5368 27.1717C44.8953 27.1717 46.0006 28.277 46.0006 29.635C46.0006 30.9935 44.8953 32.0988 43.5368 32.0988ZM18.5887 36.6885C18.5887 33.5455 21.1456 30.9886 24.2882 30.9886C27.4312 30.9886 29.988 33.5455 29.988 36.6885C29.988 39.8311 27.4312 42.3879 24.2882 42.3879C21.1456 42.3879 18.5887 39.8311 18.5887 36.6885ZM21.8248 36.6885C21.8248 38.0465 22.9301 39.1518 24.2882 39.1518C25.6467 39.1518 26.7519 38.0465 26.7519 36.6885C26.7519 35.33 25.6467 34.2247 24.2882 34.2247C22.9301 34.2247 21.8248 35.33 21.8248 36.6885Z" fill="#E3D7B6"/>
</svg>
