<svg width="51" height="51" viewBox="0 0 51 51" fill="none" xmlns="http://www.w3.org/2000/svg">
<path d="M50.8339 18.5832C50.8339 12.0636 45.5318 6.75965 39.0146 6.75965C38.7315 6.75965 38.4456 6.77029 38.1583 6.79176C35.3538 2.57524 30.6025 0 25.5 0C20.3976 0 15.6463 2.57576 12.8418 6.79176C12.5546 6.77029 12.2686 6.75965 11.9855 6.75965C5.46813 6.75965 0.166016 12.0636 0.166016 18.5832C0.166016 24.531 4.57983 29.4646 10.3027 30.2844V46.6245C10.3027 49.0373 12.2654 51 14.678 51H36.3219C38.7347 51 40.6973 49.0371 40.6973 46.6245V30.2844C46.4203 29.4646 50.8339 24.5308 50.8339 18.5832ZM36.3219 47.6342H14.6782C14.1311 47.6342 13.6685 47.1717 13.6685 46.6243V30.2859C15.3173 30.0524 16.8827 29.4751 18.2947 28.5773C20.4606 29.7488 22.9239 30.4063 25.5 30.4063C28.0761 30.4063 30.5392 29.7488 32.705 28.5775C34.1174 29.4751 35.683 30.0524 37.3316 30.2859V46.6243C37.3316 47.1717 36.8692 47.6342 36.3219 47.6342ZM39.0146 27.0405C37.8818 27.0405 36.7868 26.8191 35.7692 26.3938C37.8172 24.5162 39.3654 22.0758 40.1428 19.2711C40.3909 18.3755 39.8662 17.448 38.9705 17.1997C38.0746 16.9516 37.1475 17.4765 36.8991 18.372C35.4848 23.476 30.7973 27.0405 25.5 27.0405C20.2027 27.0405 15.5153 23.476 14.1009 18.372C13.8527 17.4763 12.9258 16.9516 12.0294 17.1997C11.1338 17.4478 10.609 18.3755 10.8571 19.2711C11.6343 22.0758 13.1827 24.5164 15.2308 26.3938C14.2132 26.8191 13.1181 27.0405 11.9855 27.0405C7.32404 27.0405 3.53184 23.2466 3.53184 18.5832C3.53184 13.9197 7.32422 10.1255 11.9855 10.1255C12.4567 10.1255 12.9418 10.1677 13.4274 10.2508C14.1283 10.3703 14.8303 10.0367 15.1789 9.41611C17.2747 5.68418 21.2295 3.36583 25.4998 3.36583C29.7701 3.36583 33.7249 5.68435 35.821 9.41628C36.1694 10.0369 36.8711 10.3705 37.5725 10.2508C38.0582 10.1677 38.5433 10.1255 39.0143 10.1255C43.6755 10.1255 47.4677 13.9197 47.4677 18.5832C47.4683 23.2466 43.6759 27.0405 39.0146 27.0405Z" fill="#E3D7B6"/>
</svg>
