<svg width="53" height="53" viewBox="0 0 53 53" fill="none" xmlns="http://www.w3.org/2000/svg">
<g clip-path="url(#clip0)">
<path d="M47.8965 28.3976C47.8965 16.6192 38.4084 7.13086 26.6298 7.13086C14.8512 7.13086 5.36328 16.619 5.36328 28.3976C5.36328 34.7875 8.17044 40.4901 12.607 44.3835L7.65338 49.3369C6.99907 49.9912 6.99907 50.9729 7.65338 51.6272C7.98054 51.9544 8.3077 51.9544 8.96201 51.9544C9.61632 51.9544 9.94348 51.9544 10.2706 51.6272L15.4303 46.4675C18.6825 48.4829 22.5104 49.6641 26.6296 49.6641C30.6638 49.6641 34.4165 48.5288 37.626 46.5918L42.6613 51.627C42.9884 51.9542 43.3156 51.9542 43.9699 51.9542C44.6242 51.9542 44.9514 51.9542 45.2785 51.627C45.9328 50.9727 45.9328 49.991 45.2785 49.3367L40.4787 44.5369C45.0174 40.6438 47.8965 34.8725 47.8965 28.3976V28.3976ZM8.63504 28.3976C8.63504 18.5821 16.8145 10.4026 26.63 10.4026C36.4455 10.4026 44.6249 18.5821 44.6249 28.3976C44.6249 38.213 36.4455 46.3925 26.63 46.3925C16.8145 46.3925 8.63504 38.2128 8.63504 28.3976Z" fill="#E3D7B6"/>
<path d="M34.1548 26.7615H29.9016C28.9201 26.7615 28.2656 26.1072 28.2656 25.1256V19.2366C28.2656 18.2551 27.6113 17.6006 26.6296 17.6006C25.6482 17.6006 24.9937 18.2549 24.9937 19.2366V25.1258C24.9937 27.7432 27.2839 30.0335 29.9014 30.0335H34.1546C34.8089 30.0335 35.7906 29.3792 35.7906 28.3975C35.7908 27.4159 35.1365 26.7615 34.1548 26.7615V26.7615Z" fill="#E3D7B6"/>
<path d="M52.8044 12.0386C50.187 7.78532 46.5881 4.18622 42.3346 1.56877C41.3532 1.24162 40.3715 1.56877 40.0444 2.22309C39.7172 3.20456 40.0444 4.18622 40.6987 4.51338C44.6249 6.47651 47.8967 9.74826 50.1868 13.6743C50.5139 14.0015 50.8411 14.3287 51.4954 14.3287C51.8226 14.3287 52.1497 14.3287 52.1497 14.3287C53.1316 13.6743 53.1316 12.6929 52.8044 12.0386V12.0386Z" fill="#E3D7B6"/>
<path d="M12.2339 4.18616C13.2154 3.53185 13.2154 2.55019 12.8882 1.89588C12.2339 0.914406 11.2522 0.914406 10.5979 1.24156C6.3447 3.85901 2.74579 7.45792 0.128345 11.7113C-0.198812 12.3656 0.128345 13.6745 0.782659 14.0016C1.10982 14.3288 1.43697 14.3288 1.76413 14.3288C2.09129 14.3288 2.7456 14.0016 2.7456 13.3473C5.03608 9.74839 8.30783 6.47645 12.2339 4.18616Z" fill="#E3D7B6"/>
</g>
<defs>
<clipPath id="clip0">
<rect width="53" height="53" fill="white"/>
</clipPath>
</defs>
</svg>
