<svg width="18" height="20" viewBox="0 0 18 20" fill="none" xmlns="http://www.w3.org/2000/svg">
<path d="M15.2516 6.54211C14.9287 5.64517 13.6819 5.18175 13.0989 5.06216C12.6953 4.97247 11.601 4.82447 10.4529 4.95004C9.30484 5.07562 8.25542 6.28798 7.87422 6.87846C7.35101 7.92489 7.19524 9.63356 7.08313 11.1359C7.02138 11.9633 6.71568 13.6354 6.55124 14.4576C6.3868 15.2798 5.61975 15.6864 4.72281 16.2066C3.82587 16.7269 2.83641 16.4907 2.40289 16.2066C1.95442 15.9002 1.00577 15.1041 1.41836 14.4404C1.83096 13.7766 2.2276 13.9941 2.36249 13.9683C2.49738 13.9425 2.91762 13.7188 2.40289 13.4963C2.40289 13.4963 0.474313 13.0242 0.115694 15.0855C-0.250943 17.1928 0.736077 18.3967 1.30414 18.7405C1.94695 19.2263 3.8963 20.0411 6.55124 19.4132C9.86992 18.6284 11.0916 17.5498 11.8038 16.8007C13.655 14.8539 14.7938 11.9564 15.2516 10.3541C15.5206 9.41232 15.6552 7.66329 15.2516 6.54211Z" fill="#D1333C"/>
<path d="M11.8982 3.23639C10.4473 2.82183 9.06641 4.79679 9.06641 5.04306C9.06641 5.28933 9.38427 5.18753 9.38427 5.18753C10.1067 5.07195 11.563 5.02571 12.4184 5.18753C13.2737 5.34936 14.8746 6.06822 15.3658 6.55946C15.5392 6.53056 15.5739 6.45543 15.7126 6.2705C15.8859 6.03933 15.5407 5.27309 15.3658 5.04306C15.1346 4.73899 14.7012 4.64274 14.4411 4.29175C14.2668 4.05653 14.0944 3.81207 14.0944 3.62713C14.0944 3.39596 14.9613 2.45619 15.3658 2.15342C15.6584 1.93442 17.1477 1.23837 17.9087 0.968675C18.0146 0.891618 18.111 0.645037 17.6486 0.275165C17.0707 -0.187176 16.8973 0.0728907 16.4061 0.0728907C16.0131 0.0728907 14.7012 1.28654 14.0944 1.89336C13.4875 2.50018 12.6784 3.78671 12.6207 3.85831C12.5629 3.9299 12.1294 4.16107 11.9849 4.06058C11.8405 3.9601 12.1005 3.29418 11.8982 3.23639Z" fill="#3A9C16"/>
</svg>
